<svg id="etw9ci160b1" xmlns="http://www.w3.org/2000/svg" xmlns:xlink="http://www.w3.org/1999/xlink" viewBox="0 0 1500 1500" shape-rendering="geometricPrecision" text-rendering="geometricPrecision"><style><![CDATA[#etw9ci160b3 {animation: etw9ci160b3_c_o 1800ms linear infinite normal forwards}@keyframes etw9ci160b3_c_o { 0% {opacity: 0} 33.333333% {opacity: 1} 66.666667% {opacity: 1} 100% {opacity: 0} }#etw9ci160b4 {animation: etw9ci160b4_c_o 1800ms linear infinite normal forwards}@keyframes etw9ci160b4_c_o { 0% {opacity: 0} 33.333333% {opacity: 1} 66.666667% {opacity: 1} 100% {opacity: 0} }#etw9ci160b5 {animation: etw9ci160b5_c_o 1800ms linear infinite normal forwards}@keyframes etw9ci160b5_c_o { 0% {opacity: 0} 33.333333% {opacity: 1} 66.666667% {opacity: 1} 100% {opacity: 0} }#etw9ci160b6 {animation: etw9ci160b6_c_o 1800ms linear infinite normal forwards}@keyframes etw9ci160b6_c_o { 0% {opacity: 0} 33.333333% {opacity: 1} 66.666667% {opacity: 1} 100% {opacity: 0} }#etw9ci160b7 {animation: etw9ci160b7_c_o 1800ms linear infinite normal forwards}@keyframes etw9ci160b7_c_o { 0% {opacity: 0} 33.333333% {opacity: 1} 66.666667% {opacity: 1} 100% {opacity: 0} }#etw9ci160b8 {animation: etw9ci160b8_c_o 1800ms linear infinite normal forwards}@keyframes etw9ci160b8_c_o { 0% {opacity: 0} 33.333333% {opacity: 1} 66.666667% {opacity: 1} 100% {opacity: 0} }#etw9ci160b9 {animation: etw9ci160b9_c_o 1800ms linear infinite normal forwards}@keyframes etw9ci160b9_c_o { 0% {opacity: 0} 33.333333% {opacity: 1} 66.666667% {opacity: 1} 100% {opacity: 0} }#etw9ci160b10 {animation: etw9ci160b10_c_o 1800ms linear infinite normal forwards}@keyframes etw9ci160b10_c_o { 0% {opacity: 0} 33.333333% {opacity: 1} 66.666667% {opacity: 1} 100% {opacity: 0} }#etw9ci160b11 {animation: etw9ci160b11_c_o 1800ms linear infinite normal forwards}@keyframes etw9ci160b11_c_o { 0% {opacity: 0} 33.333333% {opacity: 1} 66.666667% {opacity: 1} 100% {opacity: 0} }]]></style><g id="etw9ci160b2"><path id="etw9ci160b3" d="M871.610000,764.930000C871.610000,762.480000,871.610000,760.340000,871.610000,758.210000C871.610000,662.710000,871.620000,567.210000,871.600000,471.710000C871.600000,456.740000,864.210000,446.540000,851.220000,443.540000C849.450000,443.130000,847.590000,442.970000,845.780000,442.970000C785.280000,442.940000,724.780000,442.940000,664.280000,442.950000C663.790000,442.950000,663.290000,443.040000,662.520000,443.800000C664.040000,444.230000,665.560000,444.670000,667.090000,445.100000C723.710000,460.710000,780.330000,476.300000,836.940000,491.930000C851.670000,496,859.580000,506.140000,859.590000,521.480000C859.650000,607.650000,859.620000,693.810000,859.590000,779.980000C859.590000,782.800000,859.360000,785.660000,858.900000,788.440000C857.130000,799.020000,849.600000,804.660000,839.130000,802.220000C825.050000,798.930000,811.150000,794.830000,797.200000,790.990000C745.390000,776.740000,693.570000,762.500000,641.790000,748.140000C620.650000,742.280000,608.340000,725.990000,608.330000,703.980000C608.280000,622.150000,608.290000,540.310000,608.330000,458.480000C608.340000,440.580000,619.970000,429.020000,637.720000,429.020000C706.720000,429.010000,775.720000,429,844.720000,429.020000C868,429.030000,885.330000,445.950000,885.360000,469.250000C885.470000,562.750000,885.420000,656.250000,885.390000,749.750000C885.370000,759.120000,880.830000,764.320000,871.610000,764.930000ZM739.910000,733.330000C739.840000,726.620000,734.120000,721,727.430000,721.060000C720.760000,721.120000,715.080000,726.900000,715.140000,733.540000C715.210000,740.180000,721.030000,745.910000,727.640000,745.840000C734.290000,745.770000,739.980000,739.970000,739.910000,733.330000Z" transform="matrix(1 0 0 1 -1.74152660000016 1.92606185000000)" opacity="0" fill="rgba(0,166,226,0.7)" stroke="none" stroke-width="1"/><path id="etw9ci160b4" d="M263.090000,815.640000C271.640000,817.370000,283.100000,818.360000,293.590000,822.070000C324.730000,833.100000,329.800000,866.400000,321.260000,887.470000C316.110000,900.180000,305.580000,905.980000,292.620000,907.880000C288.370000,908.500000,283.990000,908.410000,279.670000,908.480000C274.930000,908.560000,272.980000,906.230000,272.870000,901.370000C272.760000,896.250000,272.230000,891.020000,270.960000,886.080000C267.920000,874.290000,260.860000,869.420000,248.630000,869.910000C240.790000,870.220000,234.070000,873.260000,228.500000,878.680000C219.210000,887.710000,219.530000,902.750000,230.220000,910.080000C239.330000,916.330000,249.580000,920.960000,259.460000,926.050000C268.760000,930.840000,278.770000,934.450000,287.520000,940.050000C314.130000,957.070000,324.130000,982.690000,317.930000,1015.360000C312.550000,1043.680000,292.020000,1064.110000,262.300000,1069.760000C234.300000,1075.080000,207.280000,1071.510000,181.570000,1059.010000C178.880000,1057.700000,176.290000,1056.170000,173.770000,1054.560000C162.360000,1047.320000,154.560000,1038.220000,157.020000,1023.370000C158.350000,1015.350000,158.340000,1007.070000,160.130000,999.170000C162.250000,989.810000,169.060000,987.420000,177.160000,992.710000C183.010000,996.520000,188.380000,1001.050000,194.060000,1005.130000C208.080000,1015.200000,223.460000,1019.800000,240.700000,1016.090000C248.200000,1014.470000,254.090000,1010.620000,255.570000,1002.510000C257.050000,994.400000,253.870000,987.710000,246.780000,983.960000C235.780000,978.150000,224.460000,972.900000,213.040000,967.970000C200.810000,962.680000,189.540000,956.210000,180.730000,945.980000C168.740000,932.050000,165.190000,915.480000,165.320000,897.650000C165.650000,854.060000,195.770000,825.940000,234.530000,819.100000C243.010000,817.610000,251.660000,817,263.090000,815.640000Z" opacity="0" fill="rgba(0,166,226,0.7)" stroke="none" stroke-width="1"/><path id="etw9ci160b5" d="M418.820000,901.190000C419.460000,900.300000,420.160000,899.450000,420.740000,898.520000C431.560000,881.550000,447.230000,873.150000,467.140000,872.900000C475.760000,872.790000,484.540000,872.920000,493,874.390000C513.390000,877.940000,525.090000,890.950000,529.060000,912.540000C531.960000,928.310000,530.860000,944.070000,529.570000,959.850000C527.040000,990.890000,524.330000,1021.920000,521.980000,1052.970000C520.800000,1068.610000,521.080000,1068.750000,505.590000,1068.560000C499.280000,1068.480000,492.880000,1068.300000,486.690000,1067.220000C472.190000,1064.680000,465.210000,1057,465.190000,1042.280000C465.170000,1029.660000,466.580000,1017.040000,467.500000,1004.420000C468.950000,984.660000,470.560000,964.900000,472.020000,945.140000C472.200000,942.660000,472.150000,940.110000,471.780000,937.660000C469.570000,922.800000,458.650000,916.310000,442.990000,920.460000C434.460000,922.720000,428.420000,928.200000,423.750000,935.430000C416.320000,946.940000,413.270000,959.860000,412.130000,973.230000C409.600000,1002.940000,407.340000,1032.660000,405.100000,1062.390000C404.810000,1066.270000,403.170000,1068.470000,399.330000,1068.350000C389.540000,1068.030000,379.620000,1068.320000,369.990000,1066.820000C358.020000,1064.960000,350.620000,1057.140000,350.160000,1045.090000C349.620000,1030.680000,350.450000,1016.170000,351.480000,1001.760000C353.710000,970.530000,356.650000,939.350000,358.920000,908.120000C361.130000,877.720000,362.850000,847.280000,364.830000,816.860000C365.260000,810.220000,365.780000,809.520000,372.200000,809.620000C381,809.750000,389.950000,809.520000,398.560000,811.020000C413.970000,813.700000,422.250000,823.820000,421.770000,839.420000C421.220000,857.390000,419.600000,875.320000,418.440000,893.270000C418.270000,895.830000,418.090000,898.390000,417.910000,900.950000C418.230000,901.030000,418.520000,901.110000,418.820000,901.190000Z" opacity="0" fill="rgba(0,166,226,0.7)" stroke="none" stroke-width="1"/><path id="etw9ci160b6" d="M664.900000,872.070000C672.570000,873.030000,682.260000,873.620000,691.670000,875.530000C719.340000,881.160000,735.860000,898.910000,741.570000,925.850000C748.950000,960.680000,745.080000,994.520000,727.560000,1026C712.490000,1053.060000,688.490000,1067,658.290000,1070.950000C644.340000,1072.770000,630.340000,1072.680000,616.500000,1069.950000C587.820000,1064.300000,568.830000,1047.840000,561.920000,1019.050000C554.830000,989.500000,556.090000,960,566.870000,931.590000C579.730000,897.680000,605.600000,879.360000,641.020000,874.060000C648.230000,872.970000,655.590000,872.820000,664.900000,872.070000ZM617.380000,976.510000C616.930000,976.570000,616.480000,976.640000,616.030000,976.700000C617.670000,986.810000,618.200000,997.270000,621.190000,1006.970000C627.270000,1026.660000,651.300000,1032.180000,665.690000,1017.320000C670.760000,1012.080000,674.910000,1005.430000,677.800000,998.700000C684.810000,982.340000,686.200000,964.880000,684.750000,947.290000C684.340000,942.270000,682.600000,937.210000,680.680000,932.490000C677.690000,925.170000,671.790000,921.180000,663.990000,919.810000C645.860000,916.620000,631.900000,924.170000,624.160000,941.450000C619.160000,952.610000,618.010000,964.510000,617.380000,976.510000Z" opacity="0" fill="rgba(0,166,226,0.7)" stroke="none" stroke-width="1"/><path id="etw9ci160b7" d="M1232.310000,993.170000C1230.060000,1010.460000,1243.170000,1026.480000,1260.310000,1028.080000C1272.910000,1029.250000,1283.040000,1025.380000,1290.130000,1014.870000C1293.930000,1009.240000,1298.530000,1008.390000,1304.770000,1009.820000C1324.850000,1014.430000,1332.120000,1036.950000,1318.220000,1052.240000C1309.910000,1061.390000,1298.990000,1065.780000,1287.330000,1068.490000C1268.600000,1072.830000,1249.770000,1073.360000,1230.870000,1069.240000C1197.250000,1061.890000,1175.490000,1038.250000,1172.270000,1004.030000C1169.550000,975.100000,1173.910000,947.200000,1187.840000,921.310000C1203.940000,891.380000,1229.640000,875.810000,1262.990000,873.290000C1275.140000,872.370000,1287.800000,872.860000,1299.710000,875.260000C1339.620000,883.290000,1354.910000,929.720000,1328.520000,961C1319.440000,971.760000,1307.710000,978.500000,1294.540000,982.920000C1276.090000,989.120000,1257.100000,992.190000,1237.650000,992.500000C1236.150000,992.520000,1234.660000,992.650000,1233.170000,992.780000C1232.870000,992.800000,1232.590000,993.030000,1232.310000,993.170000ZM1232.840000,964.450000C1247.660000,963.970000,1261.520000,962.350000,1273.390000,953.390000C1275.330000,951.920000,1276.990000,949.890000,1278.300000,947.810000C1282.600000,941,1282.040000,931.750000,1277.190000,925.270000C1273.100000,919.810000,1265.630000,917.290000,1257.810000,920.080000C1253.480000,921.620000,1249.120000,924.500000,1246.050000,927.920000C1236.980000,938.010000,1234.860000,950.870000,1232.840000,964.450000Z" opacity="0" fill="rgba(0,166,226,0.7)" stroke="none" stroke-width="1"/><path id="etw9ci160b8" d="M955.650000,923.220000C949.140000,923.220000,943.670000,923.090000,938.210000,923.270000C934.640000,923.390000,932.810000,922.090000,933.100000,918.400000C933.780000,909.770000,934.070000,901.090000,935.280000,892.540000C936.670000,882.740000,943.320000,877.150000,954.520000,876.350000C958.680000,876.050000,960.040000,874.310000,961.320000,870.870000C966,858.250000,971.060000,845.770000,975.810000,833.170000C978.230000,826.750000,982.170000,824.210000,989.400000,824.420000C1009.640000,825.010000,1018.010000,832.740000,1018.790000,853.300000C1019.070000,860.600000,1018.830000,867.930000,1018.830000,875.990000C1019.680000,875.990000,1021.270000,875.990000,1022.860000,875.990000C1033.190000,875.990000,1043.510000,876.030000,1053.840000,875.980000C1058.220000,875.960000,1060.380000,877.870000,1059.970000,882.380000C1059.290000,889.840000,1059,897.350000,1057.930000,904.750000C1056.220000,916.520000,1049.680000,922.350000,1037.820000,922.960000C1031.010000,923.310000,1024.170000,923.250000,1017.340000,923.170000C1014.710000,923.140000,1013.390000,923.840000,1013.180000,926.690000C1011.170000,953.410000,1009.030000,980.130000,1007.050000,1006.850000C1006.820000,1009.970000,1007.050000,1013.200000,1007.580000,1016.290000C1008.600000,1022.150000,1012.170000,1024.930000,1017.930000,1023.370000C1022.280000,1022.190000,1026.420000,1019.730000,1030.260000,1017.240000C1037.140000,1012.770000,1042.050000,1014.540000,1042.760000,1022.600000C1043.250000,1028.200000,1043.360000,1033.990000,1042.520000,1039.530000C1039.640000,1058.340000,1028.810000,1068.930000,1009.830000,1070.920000C1001.140000,1071.830000,992.180000,1071.840000,983.500000,1070.860000C962.420000,1068.490000,948.860000,1054.730000,948.260000,1033.540000C947.780000,1016.640000,949.430000,999.650000,950.620000,982.740000C951.980000,963.190000,953.900000,943.660000,955.650000,923.220000Z" opacity="0" fill="rgba(0,166,226,0.7)" stroke="none" stroke-width="1"/><path id="etw9ci160b9" d="M838.680000,900.070000C844.400000,894.270000,849.670000,887.730000,856.100000,882.680000C867.680000,873.600000,881.180000,870.290000,895.650000,873.940000C910.980000,877.810000,920.450000,887.790000,923.170000,903.500000C925.790000,918.590000,923.190000,932.730000,913.800000,945.150000C904.550000,957.380000,887.780000,962.740000,873.010000,958.590000C869.460000,957.590000,867.800000,955.910000,868.010000,951.890000C868.370000,944.940000,868.730000,937.880000,867.930000,931C866.820000,921.510000,858.560000,917.970000,850.840000,923.720000C847.150000,926.470000,844.120000,930.680000,841.970000,934.830000C836.430000,945.520000,835.130000,957.390000,834.180000,969.180000C831.720000,999.740000,829.460000,1030.310000,827.290000,1060.880000C826.930000,1065.920000,824.290000,1068.440000,819.790000,1068.380000C810.660000,1068.260000,801.410000,1068.300000,792.430000,1066.850000C780.040000,1064.850000,772.540000,1056.850000,772.180000,1044.340000C771.730000,1028.900000,772.470000,1013.390000,773.490000,997.960000C775.720000,964.380000,778.460000,930.840000,780.990000,897.280000C781.330000,892.790000,781.530000,888.290000,782.100000,883.830000C782.830000,878.070000,785.290000,875.880000,791.020000,876.010000C798.840000,876.170000,806.730000,876,814.440000,877.100000C826.690000,878.850000,835.320000,885.370000,838.030000,898.180000C838.220000,899.130000,838.660000,900,838.680000,900.070000Z" opacity="0" fill="rgba(0,166,226,0.7)" stroke="none" stroke-width="1"/><path id="etw9ci160b10" d="M1078.070000,1028.140000C1081.840000,977.850000,1085.370000,930.710000,1088.900000,883.570000C1089.420000,876.660000,1090.030000,875.930000,1097.070000,876.040000C1105.210000,876.170000,1113.410000,876.090000,1121.480000,877.020000C1136.450000,878.740000,1144.610000,887.410000,1144.900000,902.540000C1145.140000,914.830000,1144.420000,927.170000,1143.540000,939.440000C1140.830000,977.130000,1137.990000,1014.810000,1134.870000,1052.460000C1133.450000,1069.640000,1135.720000,1068.590000,1118.160000,1068.430000C1111.860000,1068.370000,1105.470000,1068.110000,1099.300000,1066.950000C1087.100000,1064.650000,1080.360000,1057.200000,1078.980000,1044.910000C1078.240000,1038.340000,1078.250000,1031.670000,1078.070000,1028.140000Z" opacity="0" fill="rgba(0,166,226,0.7)" stroke="none" stroke-width="1"/><path id="etw9ci160b11" d="M1126.590000,804.920000C1128.250000,804.920000,1129.930000,804.820000,1131.580000,804.940000C1140.640000,805.600000,1148.900000,808.080000,1152.920000,817.140000C1157.110000,826.590000,1155.750000,835.950000,1149.500000,843.980000C1146.550000,847.770000,1142.350000,851.170000,1137.990000,853.170000C1127.040000,858.210000,1115.320000,858.650000,1103.820000,855.330000C1087.500000,850.630000,1083.490000,828.580000,1096.330000,815.270000C1102.660000,808.700000,1110.770000,805.990000,1119.600000,805.040000C1121.910000,804.790000,1124.260000,804.810000,1126.590000,804.710000C1126.590000,804.770000,1126.590000,804.850000,1126.590000,804.920000Z" opacity="0" fill="rgba(0,166,226,0.7)" stroke="none" stroke-width="1"/></g></svg>