<?xml version="1.0" encoding="utf-8"?>
<!-- Generator: Adobe Illustrator 24.3.0, SVG Export Plug-In . SVG Version: 6.00 Build 0)  -->
<svg version="1.1" id="Capa_1" xmlns="http://www.w3.org/2000/svg" xmlns:xlink="http://www.w3.org/1999/xlink" x="0px" y="0px"
	 viewBox="0 0 1000 1000" style="enable-background:new 0 0 1000 1000;" xml:space="preserve">
<style type="text/css">
	.st0{fill:#00A6E2;}
</style>
<path class="st0" d="M365.45,226.64c6.28,1.77,12.55,3.57,18.85,5.3c41.12,11.28,82.25,22.52,123.36,33.83
	c45.36,12.48,90.73,24.93,136.05,37.57c22.62,6.31,35.11,22.77,35.12,46.15c0.05,137.05,0.04,274.1,0,411.14
	c0,4.22-0.25,8.47-0.79,12.66c-2.2,17.13-15.54,26.83-32.33,22.72c-18.92-4.62-37.65-10.02-56.43-15.19
	c-35.44-9.76-70.85-19.63-106.28-29.41c-37.92-10.47-75.85-20.88-113.77-31.32c-12.41-3.41-24.85-6.69-37.22-10.26
	c-32.62-9.42-52.08-35.39-52.09-69.48c-0.02-106.88-0.01-213.76,0-320.64c0-22.99-0.02-45.99,0.01-68.98
	c0.03-29.26,18.36-47.67,47.47-47.67c109.27,0,218.54-0.01,327.81,0c37.04,0,64.88,27.84,64.89,64.98
	c0.02,148.09,0.01,296.17,0.01,444.26c0,12.15-5.28,20.53-14.99,23.84c-5.97,2.04-7.11,1.25-7.11-5
	c-0.01-153.6-0.05-307.21,0.04-460.81c0.01-16.47-5.09-30.38-19.8-38.62c-6.45-3.61-14.52-6.06-21.87-6.1
	c-90.5-0.39-181.01-0.23-271.52-0.22c-6.39,0-12.78,0-19.17,0C365.6,225.81,365.52,226.22,365.45,226.64z M469.09,706.49
	c10.5,0.1,19.74-9.07,19.77-19.62c0.03-10.65-8.92-19.77-19.51-19.87c-10.41-0.1-19.76,9.15-19.85,19.64
	C449.42,697.1,458.59,706.39,469.09,706.49z"/>
</svg>
