<?xml version="1.0" encoding="utf-8"?>
<!-- Generator: Adobe Illustrator 24.3.0, SVG Export Plug-In . SVG Version: 6.00 Build 0)  -->
<svg version="1.1" id="Capa_1" xmlns="http://www.w3.org/2000/svg" xmlns:xlink="http://www.w3.org/1999/xlink" x="0px" y="0px"
	 viewBox="0 0 1000 1000" style="enable-background:new 0 0 1000 1000;" xml:space="preserve">
<style type="text/css">
	.st0{fill:#00A6E2;}
</style>
<g>
	<path class="st0" d="M784.4,460.68l-94.91-94.91c-5.26-5.26-14.27-1.54-14.27,5.91v56.55H498.17c-8.15,0-14.76,6.61-14.76,14.76
		v47.21c0,8.15,6.61,14.76,14.76,14.76h177.05v56.55c0,7.45,9,11.17,14.27,5.91l94.91-94.91
		C787.66,469.23,787.66,463.94,784.4,460.68z"/>
	<path class="st0" d="M596.77,631.13c0,17.82-14.44,32.26-32.26,32.26H443.32V338.08c0-12.22-6.9-23.39-17.83-28.86l-135.61-67.81
		h274.63c17.82,0,32.26,14.44,32.26,32.26v121.18h38.36V235.32c0-17.82-14.44-32.26-32.26-32.26H245.42
		c-17.82,0-32.26,14.44-32.26,32.26v446.49c0,12.22,6.9,23.39,17.83,28.86l165.64,82.82c21.45,10.73,46.69-4.87,46.69-28.86v-62.88
		h159.54c17.82,0,32.26-14.44,32.26-32.26V548.31h-38.36V631.13z"/>
</g>
</svg>
